<?xml version="1.0" encoding="UTF-8" standalone="no"?>
<!DOCTYPE svg PUBLIC "-//W3C//DTD SVG 1.1//EN"
 "http://www.w3.org/Graphics/SVG/1.1/DTD/svg11.dtd">
<!-- Generated by graphviz version 2.26.0 (20091210.2329)
 -->
<!-- Title: G Pages: 1 -->
<svg width="766pt" height="1742pt"
 viewBox="0.00 0.00 766.00 1742.34" xmlns="http://www.w3.org/2000/svg" xmlns:xlink="http://www.w3.org/1999/xlink">
<g id="graph1" class="graph" transform="scale(1 1) rotate(0) translate(4 1738.34)">
<title>G</title>
<polygon fill="white" stroke="white" points="-4,5 -4,-1738.34 763,-1738.34 763,5 -4,5"/>
<g id="graph2" class="cluster"><title>cluster_Global</title>
<polyline fill="none" stroke="gray" points="206,-193.343 738,-193.343 "/>
<path fill="none" stroke="gray" d="M738,-193.343C744,-193.343 750,-199.343 750,-205.343"/>
<polyline fill="none" stroke="gray" points="750,-205.343 750,-1714.34 "/>
<path fill="none" stroke="gray" d="M750,-1714.34C750,-1720.34 744,-1726.34 738,-1726.34"/>
<polyline fill="none" stroke="gray" points="738,-1726.34 206,-1726.34 "/>
<path fill="none" stroke="gray" d="M206,-1726.34C200,-1726.34 194,-1720.34 194,-1714.34"/>
<polyline fill="none" stroke="gray" points="194,-1714.34 194,-205.343 "/>
<path fill="none" stroke="gray" d="M194,-205.343C194,-199.343 200,-193.343 206,-193.343"/>
<text text-anchor="middle" x="472" y="-1712.44" font-family="Times Roman,serif" font-size="11.00" fill="gray">Global</text>
</g>
<g id="graph3" class="cluster"><title>cluster_\RedBeanPHP</title>
<polyline fill="none" stroke="gray" points="214,-201.343 552,-201.343 "/>
<path fill="none" stroke="gray" d="M552,-201.343C558,-201.343 564,-207.343 564,-213.343"/>
<polyline fill="none" stroke="gray" points="564,-213.343 564,-1466.34 "/>
<path fill="none" stroke="gray" d="M564,-1466.34C564,-1472.34 558,-1478.34 552,-1478.34"/>
<polyline fill="none" stroke="gray" points="552,-1478.34 214,-1478.34 "/>
<path fill="none" stroke="gray" d="M214,-1478.34C208,-1478.34 202,-1472.34 202,-1466.34"/>
<polyline fill="none" stroke="gray" points="202,-1466.34 202,-213.343 "/>
<path fill="none" stroke="gray" d="M202,-213.343C202,-207.343 208,-201.343 214,-201.343"/>
<text text-anchor="middle" x="383" y="-1464.44" font-family="Times Roman,serif" font-size="11.00" fill="gray">RedBeanPHP</text>
</g>
<g id="graph4" class="cluster"><title>cluster_\RedBeanPHP\Logger</title>
<polyline fill="none" stroke="gray" points="456,-1372.34 506,-1372.34 "/>
<path fill="none" stroke="gray" d="M506,-1372.34C512,-1372.34 518,-1378.34 518,-1384.34"/>
<polyline fill="none" stroke="gray" points="518,-1384.34 518,-1435.34 "/>
<path fill="none" stroke="gray" d="M518,-1435.34C518,-1441.34 512,-1447.34 506,-1447.34"/>
<polyline fill="none" stroke="gray" points="506,-1447.34 456,-1447.34 "/>
<path fill="none" stroke="gray" d="M456,-1447.34C450,-1447.34 444,-1441.34 444,-1435.34"/>
<polyline fill="none" stroke="gray" points="444,-1435.34 444,-1384.34 "/>
<path fill="none" stroke="gray" d="M444,-1384.34C444,-1378.34 450,-1372.34 456,-1372.34"/>
<text text-anchor="middle" x="481" y="-1433.44" font-family="Times Roman,serif" font-size="11.00" fill="gray">Logger</text>
</g>
<g id="graph5" class="cluster"><title>cluster_\RedBeanPHP\Driver</title>
<polyline fill="none" stroke="gray" points="458,-1289.34 504,-1289.34 "/>
<path fill="none" stroke="gray" d="M504,-1289.34C510,-1289.34 516,-1295.34 516,-1301.34"/>
<polyline fill="none" stroke="gray" points="516,-1301.34 516,-1352.34 "/>
<path fill="none" stroke="gray" d="M516,-1352.34C516,-1358.34 510,-1364.34 504,-1364.34"/>
<polyline fill="none" stroke="gray" points="504,-1364.34 458,-1364.34 "/>
<path fill="none" stroke="gray" d="M458,-1364.34C452,-1364.34 446,-1358.34 446,-1352.34"/>
<polyline fill="none" stroke="gray" points="446,-1352.34 446,-1301.34 "/>
<path fill="none" stroke="gray" d="M446,-1301.34C446,-1295.34 452,-1289.34 458,-1289.34"/>
<text text-anchor="middle" x="481" y="-1350.44" font-family="Times Roman,serif" font-size="11.00" fill="gray">Driver</text>
</g>
<g id="graph6" class="cluster"><title>cluster_\RedBeanPHP\Adapter</title>
<polyline fill="none" stroke="gray" points="451,-849.343 511,-849.343 "/>
<path fill="none" stroke="gray" d="M511,-849.343C517,-849.343 523,-855.343 523,-861.343"/>
<polyline fill="none" stroke="gray" points="523,-861.343 523,-912.343 "/>
<path fill="none" stroke="gray" d="M523,-912.343C523,-918.343 517,-924.343 511,-924.343"/>
<polyline fill="none" stroke="gray" points="511,-924.343 451,-924.343 "/>
<path fill="none" stroke="gray" d="M451,-924.343C445,-924.343 439,-918.343 439,-912.343"/>
<polyline fill="none" stroke="gray" points="439,-912.343 439,-861.343 "/>
<path fill="none" stroke="gray" d="M439,-861.343C439,-855.343 445,-849.343 451,-849.343"/>
<text text-anchor="middle" x="481" y="-910.443" font-family="Times Roman,serif" font-size="11.00" fill="gray">Adapter</text>
</g>
<g id="graph7" class="cluster"><title>cluster_\RedBeanPHP\QueryWriter</title>
<polyline fill="none" stroke="gray" points="222,-1098.34 513,-1098.34 "/>
<path fill="none" stroke="gray" d="M513,-1098.34C519,-1098.34 525,-1104.34 525,-1110.34"/>
<polyline fill="none" stroke="gray" points="525,-1110.34 525,-1269.34 "/>
<path fill="none" stroke="gray" d="M525,-1269.34C525,-1275.34 519,-1281.34 513,-1281.34"/>
<polyline fill="none" stroke="gray" points="513,-1281.34 222,-1281.34 "/>
<path fill="none" stroke="gray" d="M222,-1281.34C216,-1281.34 210,-1275.34 210,-1269.34"/>
<polyline fill="none" stroke="gray" points="210,-1269.34 210,-1110.34 "/>
<path fill="none" stroke="gray" d="M210,-1110.34C210,-1104.34 216,-1098.34 222,-1098.34"/>
<text text-anchor="middle" x="367.5" y="-1267.44" font-family="Times Roman,serif" font-size="11.00" fill="gray">QueryWriter</text>
</g>
<g id="graph8" class="cluster"><title>cluster_\RedBeanPHP\RedException</title>
<polyline fill="none" stroke="gray" points="453,-1015.34 508,-1015.34 "/>
<path fill="none" stroke="gray" d="M508,-1015.34C514,-1015.34 520,-1021.34 520,-1027.34"/>
<polyline fill="none" stroke="gray" points="520,-1027.34 520,-1078.34 "/>
<path fill="none" stroke="gray" d="M520,-1078.34C520,-1084.34 514,-1090.34 508,-1090.34"/>
<polyline fill="none" stroke="gray" points="508,-1090.34 453,-1090.34 "/>
<path fill="none" stroke="gray" d="M453,-1090.34C447,-1090.34 441,-1084.34 441,-1078.34"/>
<polyline fill="none" stroke="gray" points="441,-1078.34 441,-1027.34 "/>
<path fill="none" stroke="gray" d="M441,-1027.34C441,-1021.34 447,-1015.34 453,-1015.34"/>
<text text-anchor="middle" x="480.5" y="-1076.44" font-family="Times Roman,serif" font-size="11.00" fill="gray">RedException</text>
</g>
<g id="graph9" class="cluster"><title>cluster_\RedBeanPHP\BeanHelper</title>
<polyline fill="none" stroke="gray" points="418,-932.343 544,-932.343 "/>
<path fill="none" stroke="gray" d="M544,-932.343C550,-932.343 556,-938.343 556,-944.343"/>
<polyline fill="none" stroke="gray" points="556,-944.343 556,-995.343 "/>
<path fill="none" stroke="gray" d="M556,-995.343C556,-1001.34 550,-1007.34 544,-1007.34"/>
<polyline fill="none" stroke="gray" points="544,-1007.34 418,-1007.34 "/>
<path fill="none" stroke="gray" d="M418,-1007.34C412,-1007.34 406,-1001.34 406,-995.343"/>
<polyline fill="none" stroke="gray" points="406,-995.343 406,-944.343 "/>
<path fill="none" stroke="gray" d="M406,-944.343C406,-938.343 412,-932.343 418,-932.343"/>
<text text-anchor="middle" x="481" y="-993.443" font-family="Times Roman,serif" font-size="11.00" fill="gray">BeanHelper</text>
</g>
<!-- \\RedBeanPHP\\Logger\\RDefault -->
<g id="node4" class="node"><title>\\RedBeanPHP\\Logger\\RDefault</title>
<polygon fill="none" stroke="black" points="510,-1416.34 452,-1416.34 452,-1380.34 510,-1380.34 510,-1416.34"/>
<text text-anchor="middle" x="481" y="-1395.94" font-family="Times Roman,serif" font-size="11.00">RDefault</text>
</g>
<!-- \\RedBeanPHP\\Logger -->
<g id="node31" class="node"><title>\\RedBeanPHP\\Logger</title>
<polygon fill="none" stroke="black" points="287,-1416.34 233,-1416.34 233,-1380.34 287,-1380.34 287,-1416.34"/>
<text text-anchor="middle" x="260" y="-1395.94" font-family="Times Roman,serif" font-size="11.00">Logger</text>
</g>
<!-- \\RedBeanPHP\\Logger\\RDefault&#45;&gt;\\RedBeanPHP\\Logger -->
<g id="edge10" class="edge"><title>\\RedBeanPHP\\Logger\\RDefault&#45;&gt;\\RedBeanPHP\\Logger</title>
<path fill="none" stroke="black" stroke-dasharray="1,5" d="M451.653,-1398.34C411.844,-1398.34 340.717,-1398.34 297.206,-1398.34"/>
<polygon fill="none" stroke="black" points="297.039,-1394.84 287.039,-1398.34 297.039,-1401.84 297.039,-1394.84"/>
</g>
<!-- \\RedBeanPHP\\Driver\\RPDO -->
<g id="node6" class="node"><title>\\RedBeanPHP\\Driver\\RPDO</title>
<polygon fill="none" stroke="black" points="508,-1333.34 454,-1333.34 454,-1297.34 508,-1297.34 508,-1333.34"/>
<text text-anchor="middle" x="481" y="-1312.94" font-family="Times Roman,serif" font-size="11.00">RPDO</text>
</g>
<!-- \\RedBeanPHP\\Driver -->
<g id="node32" class="node"><title>\\RedBeanPHP\\Driver</title>
<polygon fill="none" stroke="black" points="287,-1333.34 233,-1333.34 233,-1297.34 287,-1297.34 287,-1333.34"/>
<text text-anchor="middle" x="260" y="-1312.94" font-family="Times Roman,serif" font-size="11.00">Driver</text>
</g>
<!-- \\RedBeanPHP\\Driver\\RPDO&#45;&gt;\\RedBeanPHP\\Driver -->
<g id="edge12" class="edge"><title>\\RedBeanPHP\\Driver\\RPDO&#45;&gt;\\RedBeanPHP\\Driver</title>
<path fill="none" stroke="black" stroke-dasharray="1,5" d="M453.901,-1315.34C414.633,-1315.34 341.771,-1315.34 297.409,-1315.34"/>
<polygon fill="none" stroke="black" points="297.321,-1311.84 287.321,-1315.34 297.321,-1318.84 297.321,-1311.84"/>
</g>
<!-- \\RedBeanPHP\\Adapter\\DBAdapter -->
<g id="node8" class="node"><title>\\RedBeanPHP\\Adapter\\DBAdapter</title>
<polygon fill="none" stroke="black" points="515,-893.343 447,-893.343 447,-857.343 515,-857.343 515,-893.343"/>
<text text-anchor="middle" x="481" y="-872.943" font-family="Times Roman,serif" font-size="11.00">DBAdapter</text>
</g>
<!-- \\RedBeanPHP\\Observable -->
<g id="node19" class="node"><title>\\RedBeanPHP\\Observable</title>
<polygon fill="none" stroke="black" points="294,-839.343 226,-839.343 226,-803.343 294,-803.343 294,-839.343"/>
<text text-anchor="start" x="237" y="-826.776" font-family="Times Roman,serif" font-size="11.00">«abstract»</text>
<text text-anchor="start" x="234" y="-813.576" font-family="Times Roman,serif" font-size="11.00">Observable</text>
</g>
<!-- \\RedBeanPHP\\Adapter\\DBAdapter&#45;&gt;\\RedBeanPHP\\Observable -->
<g id="edge20" class="edge"><title>\\RedBeanPHP\\Adapter\\DBAdapter&#45;&gt;\\RedBeanPHP\\Observable</title>
<path fill="none" stroke="black" d="M446.953,-867.024C408.81,-857.704 346.829,-842.559 304.784,-832.285"/>
<polygon fill="none" stroke="black" points="305.36,-828.823 294.815,-829.85 303.699,-835.623 305.36,-828.823"/>
</g>
<!-- \\RedBeanPHP\\Adapter -->
<g id="node34" class="node"><title>\\RedBeanPHP\\Adapter</title>
<polygon fill="none" stroke="black" points="287,-893.343 233,-893.343 233,-857.343 287,-857.343 287,-893.343"/>
<text text-anchor="middle" x="260" y="-872.943" font-family="Times Roman,serif" font-size="11.00">Adapter</text>
</g>
<!-- \\RedBeanPHP\\Adapter\\DBAdapter&#45;&gt;\\RedBeanPHP\\Adapter -->
<g id="edge22" class="edge"><title>\\RedBeanPHP\\Adapter\\DBAdapter&#45;&gt;\\RedBeanPHP\\Adapter</title>
<path fill="none" stroke="black" stroke-dasharray="1,5" d="M446.953,-875.343C406.435,-875.343 339.018,-875.343 297.173,-875.343"/>
<polygon fill="none" stroke="black" points="297.117,-871.843 287.117,-875.343 297.117,-878.843 297.117,-871.843"/>
</g>
<!-- \\RedBeanPHP\\QueryWriter\\AQueryWriter -->
<g id="node10" class="node"><title>\\RedBeanPHP\\QueryWriter\\AQueryWriter</title>
<polygon fill="none" stroke="black" points="301,-1196.34 219,-1196.34 219,-1160.34 301,-1160.34 301,-1196.34"/>
<text text-anchor="start" x="237" y="-1183.78" font-family="Times Roman,serif" font-size="11.00">«abstract»</text>
<text text-anchor="start" x="227" y="-1170.58" font-family="Times Roman,serif" font-size="11.00">AQueryWriter</text>
</g>
<!-- \\RedBeanPHP\\QueryWriter\\MySQL -->
<g id="node11" class="node"><title>\\RedBeanPHP\\QueryWriter\\MySQL</title>
<polygon fill="none" stroke="black" points="508,-1142.34 454,-1142.34 454,-1106.34 508,-1106.34 508,-1142.34"/>
<text text-anchor="middle" x="481" y="-1121.94" font-family="Times Roman,serif" font-size="11.00">MySQL</text>
</g>
<!-- \\RedBeanPHP\\QueryWriter\\MySQL&#45;&gt;\\RedBeanPHP\\QueryWriter\\AQueryWriter -->
<g id="edge24" class="edge"><title>\\RedBeanPHP\\QueryWriter\\MySQL&#45;&gt;\\RedBeanPHP\\QueryWriter\\AQueryWriter</title>
<path fill="none" stroke="black" d="M453.901,-1130.96C418.54,-1139.6 355.935,-1154.9 311.433,-1165.78"/>
<polygon fill="none" stroke="black" points="310.549,-1162.39 301.666,-1168.16 312.211,-1169.19 310.549,-1162.39"/>
</g>
<!-- \\RedBeanPHP\\QueryWriter -->
<g id="node35" class="node"><title>\\RedBeanPHP\\QueryWriter</title>
<polygon fill="none" stroke="black" points="297,-1090.34 223,-1090.34 223,-1054.34 297,-1054.34 297,-1090.34"/>
<text text-anchor="middle" x="260" y="-1069.94" font-family="Times Roman,serif" font-size="11.00">QueryWriter</text>
</g>
<!-- \\RedBeanPHP\\QueryWriter\\MySQL&#45;&gt;\\RedBeanPHP\\QueryWriter -->
<g id="edge26" class="edge"><title>\\RedBeanPHP\\QueryWriter\\MySQL&#45;&gt;\\RedBeanPHP\\QueryWriter</title>
<path fill="none" stroke="black" stroke-dasharray="1,5" d="M453.901,-1117.97C417.361,-1109.37 351.731,-1093.93 307.044,-1083.41"/>
<polygon fill="none" stroke="black" points="307.822,-1080 297.287,-1081.12 306.219,-1086.81 307.822,-1080"/>
</g>
<!-- \\RedBeanPHP\\QueryWriter\\SQLiteT -->
<g id="node12" class="node"><title>\\RedBeanPHP\\QueryWriter\\SQLiteT</title>
<polygon fill="none" stroke="black" points="509,-1250.34 453,-1250.34 453,-1214.34 509,-1214.34 509,-1250.34"/>
<text text-anchor="middle" x="481" y="-1229.94" font-family="Times Roman,serif" font-size="11.00">SQLiteT</text>
</g>
<!-- \\RedBeanPHP\\QueryWriter\\SQLiteT&#45;&gt;\\RedBeanPHP\\QueryWriter\\AQueryWriter -->
<g id="edge28" class="edge"><title>\\RedBeanPHP\\QueryWriter\\SQLiteT&#45;&gt;\\RedBeanPHP\\QueryWriter\\AQueryWriter</title>
<path fill="none" stroke="black" d="M452.561,-1225.39C416.978,-1216.7 355.387,-1201.65 311.442,-1190.91"/>
<polygon fill="none" stroke="black" points="312.06,-1187.46 301.515,-1188.49 310.398,-1194.26 312.06,-1187.46"/>
</g>
<!-- \\RedBeanPHP\\QueryWriter\\SQLiteT&#45;&gt;\\RedBeanPHP\\QueryWriter -->
<g id="edge30" class="edge"><title>\\RedBeanPHP\\QueryWriter\\SQLiteT&#45;&gt;\\RedBeanPHP\\QueryWriter</title>
<path fill="none" stroke="black" stroke-dasharray="1,5" d="M452.968,-1227.18C437.752,-1223.25 419.374,-1216.53 406,-1205.34 362.323,-1168.8 387.163,-1129.03 342,-1094.34 331.854,-1086.55 319.161,-1081.51 306.816,-1078.26"/>
<polygon fill="none" stroke="black" points="307.574,-1074.84 297.044,-1076.01 306.006,-1081.66 307.574,-1074.84"/>
</g>
<!-- \\RedBeanPHP\\QueryWriter\\PostgreSQL -->
<g id="node13" class="node"><title>\\RedBeanPHP\\QueryWriter\\PostgreSQL</title>
<polygon fill="none" stroke="black" points="516,-1196.34 446,-1196.34 446,-1160.34 516,-1160.34 516,-1196.34"/>
<text text-anchor="middle" x="481" y="-1175.94" font-family="Times Roman,serif" font-size="11.00">PostgreSQL</text>
</g>
<!-- \\RedBeanPHP\\QueryWriter\\PostgreSQL&#45;&gt;\\RedBeanPHP\\QueryWriter\\AQueryWriter -->
<g id="edge32" class="edge"><title>\\RedBeanPHP\\QueryWriter\\PostgreSQL&#45;&gt;\\RedBeanPHP\\QueryWriter\\AQueryWriter</title>
<path fill="none" stroke="black" d="M445.493,-1178.34C409.386,-1178.34 353.052,-1178.34 311.935,-1178.34"/>
<polygon fill="none" stroke="black" points="311.83,-1174.84 301.83,-1178.34 311.83,-1181.84 311.83,-1174.84"/>
</g>
<!-- \\RedBeanPHP\\QueryWriter\\PostgreSQL&#45;&gt;\\RedBeanPHP\\QueryWriter -->
<g id="edge34" class="edge"><title>\\RedBeanPHP\\QueryWriter\\PostgreSQL&#45;&gt;\\RedBeanPHP\\QueryWriter</title>
<path fill="none" stroke="black" stroke-dasharray="1,5" d="M445.402,-1168.62C432.503,-1164.31 418.132,-1158.56 406,-1151.34 373.263,-1131.87 375.521,-1112.43 342,-1094.34 331.258,-1088.55 318.885,-1084.2 307.061,-1080.97"/>
<polygon fill="none" stroke="black" points="307.857,-1077.56 297.305,-1078.51 306.146,-1084.35 307.857,-1077.56"/>
</g>
<!-- \\RedBeanPHP\\RedException\\SQL -->
<g id="node15" class="node"><title>\\RedBeanPHP\\RedException\\SQL</title>
<polygon fill="none" stroke="black" points="508,-1059.34 454,-1059.34 454,-1023.34 508,-1023.34 508,-1059.34"/>
<text text-anchor="middle" x="481" y="-1038.94" font-family="Times Roman,serif" font-size="11.00">SQL</text>
</g>
<!-- \\RedBeanPHP\\RedException -->
<g id="node20" class="node"><title>\\RedBeanPHP\\RedException</title>
<polygon fill="none" stroke="black" points="299,-1033.34 221,-1033.34 221,-997.343 299,-997.343 299,-1033.34"/>
<text text-anchor="middle" x="260" y="-1012.94" font-family="Times Roman,serif" font-size="11.00">RedException</text>
</g>
<!-- \\RedBeanPHP\\RedException\\SQL&#45;&gt;\\RedBeanPHP\\RedException -->
<g id="edge38" class="edge"><title>\\RedBeanPHP\\RedException\\SQL&#45;&gt;\\RedBeanPHP\\RedException</title>
<path fill="none" stroke="black" d="M453.901,-1038.15C418.079,-1033.94 354.3,-1026.44 309.704,-1021.19"/>
<polygon fill="none" stroke="black" points="309.994,-1017.7 299.654,-1020.01 309.176,-1024.65 309.994,-1017.7"/>
</g>
<!-- \\RedBeanPHP\\BeanHelper\\SimpleFacadeBeanHelper -->
<g id="node17" class="node"><title>\\RedBeanPHP\\BeanHelper\\SimpleFacadeBeanHelper</title>
<polygon fill="none" stroke="black" points="548,-976.343 414,-976.343 414,-940.343 548,-940.343 548,-976.343"/>
<text text-anchor="middle" x="481" y="-955.943" font-family="Times Roman,serif" font-size="11.00">SimpleFacadeBeanHelper</text>
</g>
<!-- \\RedBeanPHP\\BeanHelper -->
<g id="node36" class="node"><title>\\RedBeanPHP\\BeanHelper</title>
<polygon fill="none" stroke="black" points="295,-976.343 225,-976.343 225,-940.343 295,-940.343 295,-976.343"/>
<text text-anchor="middle" x="260" y="-955.943" font-family="Times Roman,serif" font-size="11.00">BeanHelper</text>
</g>
<!-- \\RedBeanPHP\\BeanHelper\\SimpleFacadeBeanHelper&#45;&gt;\\RedBeanPHP\\BeanHelper -->
<g id="edge44" class="edge"><title>\\RedBeanPHP\\BeanHelper\\SimpleFacadeBeanHelper&#45;&gt;\\RedBeanPHP\\BeanHelper</title>
<path fill="none" stroke="black" stroke-dasharray="1,5" d="M413.793,-958.343C378.88,-958.343 337.119,-958.343 305.93,-958.343"/>
<polygon fill="none" stroke="black" points="305.783,-954.843 295.783,-958.343 305.783,-961.843 305.783,-954.843"/>
</g>
<!-- \\RedBeanPHP\\OODBBean -->
<g id="node18" class="node"><title>\\RedBeanPHP\\OODBBean</title>
<polygon fill="none" stroke="black" points="517,-515.343 445,-515.343 445,-479.343 517,-479.343 517,-515.343"/>
<text text-anchor="middle" x="481" y="-494.943" font-family="Times Roman,serif" font-size="11.00">OODBBean</text>
</g>
<!-- \\IteratorAggregate -->
<g id="node69" class="node"><title>\\IteratorAggregate</title>
<ellipse fill="none" stroke="black" cx="260" cy="-54.3427" rx="82.0244" ry="19.0919"/>
<text text-anchor="middle" x="260" y="-51.2427" font-family="Times Roman,serif" font-size="14.00" fill="gray">\IteratorAggregate</text>
</g>
<!-- \\RedBeanPHP\\OODBBean&#45;&gt;\\IteratorAggregate -->
<g id="edge14" class="edge"><title>\\RedBeanPHP\\OODBBean&#45;&gt;\\IteratorAggregate</title>
<path fill="none" stroke="black" stroke-dasharray="1,5" d="M444.76,-492.325C430.682,-488.55 415.652,-481.934 406,-470.343 294.163,-336.035 454.942,-215.723 342,-82.3427 338.623,-78.3551 334.654,-74.9341 330.314,-71.9994"/>
<polygon fill="none" stroke="black" points="331.977,-68.9183 321.57,-66.934 328.468,-74.9753 331.977,-68.9183"/>
</g>
<!-- \\ArrayAccess -->
<g id="node71" class="node"><title>\\ArrayAccess</title>
<ellipse fill="none" stroke="black" cx="260" cy="-166.343" rx="63.1385" ry="19.0919"/>
<text text-anchor="middle" x="260" y="-163.243" font-family="Times Roman,serif" font-size="14.00" fill="gray">\ArrayAccess</text>
</g>
<!-- \\RedBeanPHP\\OODBBean&#45;&gt;\\ArrayAccess -->
<g id="edge16" class="edge"><title>\\RedBeanPHP\\OODBBean&#45;&gt;\\ArrayAccess</title>
<path fill="none" stroke="black" stroke-dasharray="1,5" d="M444.751,-491.894C430.844,-488.051 415.942,-481.502 406,-470.343 323.101,-377.291 424.157,-291.05 342,-197.343 336.303,-190.845 329.099,-185.704 321.337,-181.639"/>
<polygon fill="none" stroke="black" points="322.572,-178.354 312.026,-177.343 319.64,-184.71 322.572,-178.354"/>
</g>
<!-- \\Countable -->
<g id="node73" class="node"><title>\\Countable</title>
<ellipse fill="none" stroke="black" cx="260" cy="-110.343" rx="53.2379" ry="19.0919"/>
<text text-anchor="middle" x="260" y="-107.243" font-family="Times Roman,serif" font-size="14.00" fill="gray">\Countable</text>
</g>
<!-- \\RedBeanPHP\\OODBBean&#45;&gt;\\Countable -->
<g id="edge18" class="edge"><title>\\RedBeanPHP\\OODBBean&#45;&gt;\\Countable</title>
<path fill="none" stroke="black" stroke-dasharray="1,5" d="M444.913,-492.196C430.86,-488.399 415.808,-481.803 406,-470.343 308.294,-356.17 440.645,-251.705 342,-138.343 335.697,-131.099 327.44,-125.727 318.594,-121.744"/>
<polygon fill="none" stroke="black" points="319.808,-118.46 309.22,-118.075 317.257,-124.979 319.808,-118.46"/>
</g>
<!-- \\Exception -->
<g id="node83" class="node"><title>\\Exception</title>
<ellipse fill="none" stroke="black" cx="53" cy="-511.343" rx="53.033" ry="19.0919"/>
<text text-anchor="middle" x="53" y="-508.243" font-family="Times Roman,serif" font-size="14.00" fill="gray">\Exception</text>
</g>
<!-- \\RedBeanPHP\\RedException&#45;&gt;\\Exception -->
<g id="edge36" class="edge"><title>\\RedBeanPHP\\RedException&#45;&gt;\\Exception</title>
<path fill="none" stroke="black" d="M220.103,-1008.87C205.042,-1004.54 188.924,-997.332 178,-985.343 116.798,-918.175 70.7228,-633.245 57.1237,-540.586"/>
<polygon fill="none" stroke="black" points="60.5614,-539.904 55.6621,-530.51 53.6339,-540.908 60.5614,-539.904"/>
</g>
<!-- \\RedBeanPHP\\OODB -->
<g id="node21" class="node"><title>\\RedBeanPHP\\OODB</title>
<polygon fill="none" stroke="black" points="508,-839.343 454,-839.343 454,-803.343 508,-803.343 508,-839.343"/>
<text text-anchor="middle" x="481" y="-818.943" font-family="Times Roman,serif" font-size="11.00">OODB</text>
</g>
<!-- \\RedBeanPHP\\OODB&#45;&gt;\\RedBeanPHP\\Observable -->
<g id="edge40" class="edge"><title>\\RedBeanPHP\\OODB&#45;&gt;\\RedBeanPHP\\Observable</title>
<path fill="none" stroke="black" d="M453.901,-821.343C416.689,-821.343 349.308,-821.343 304.601,-821.343"/>
<polygon fill="none" stroke="black" points="304.592,-817.843 294.592,-821.343 304.592,-824.843 304.592,-817.843"/>
</g>
<!-- \\RedBeanPHP\\ToolBox -->
<g id="node22" class="node"><title>\\RedBeanPHP\\ToolBox</title>
<polygon fill="none" stroke="black" points="508,-731.343 454,-731.343 454,-695.343 508,-695.343 508,-731.343"/>
<text text-anchor="middle" x="481" y="-710.943" font-family="Times Roman,serif" font-size="11.00">ToolBox</text>
</g>
<!-- \\RedBeanPHP\\Finder -->
<g id="node23" class="node"><title>\\RedBeanPHP\\Finder</title>
<polygon fill="none" stroke="black" points="508,-677.343 454,-677.343 454,-641.343 508,-641.343 508,-677.343"/>
<text text-anchor="middle" x="481" y="-656.943" font-family="Times Roman,serif" font-size="11.00">Finder</text>
</g>
<!-- \\RedBeanPHP\\AssociationManager -->
<g id="node24" class="node"><title>\\RedBeanPHP\\AssociationManager</title>
<polygon fill="none" stroke="black" points="535,-785.343 427,-785.343 427,-749.343 535,-749.343 535,-785.343"/>
<text text-anchor="middle" x="481" y="-764.943" font-family="Times Roman,serif" font-size="11.00">AssociationManager</text>
</g>
<!-- \\RedBeanPHP\\AssociationManager&#45;&gt;\\RedBeanPHP\\Observable -->
<g id="edge42" class="edge"><title>\\RedBeanPHP\\AssociationManager&#45;&gt;\\RedBeanPHP\\Observable</title>
<path fill="none" stroke="black" d="M426.371,-780.691C388.91,-789.844 339.824,-801.838 304.695,-810.422"/>
<polygon fill="none" stroke="black" points="303.608,-807.084 294.725,-812.858 305.27,-813.884 303.608,-807.084"/>
</g>
<!-- \\RedBeanPHP\\SimpleModel -->
<g id="node25" class="node"><title>\\RedBeanPHP\\SimpleModel</title>
<polygon fill="none" stroke="black" points="519,-569.343 443,-569.343 443,-533.343 519,-533.343 519,-569.343"/>
<text text-anchor="middle" x="481" y="-548.943" font-family="Times Roman,serif" font-size="11.00">SimpleModel</text>
</g>
<!-- \\RedBeanPHP\\SimpleModelHelper -->
<g id="node26" class="node"><title>\\RedBeanPHP\\SimpleModelHelper</title>
<polygon fill="none" stroke="black" points="534,-623.343 428,-623.343 428,-587.343 534,-587.343 534,-623.343"/>
<text text-anchor="middle" x="481" y="-602.943" font-family="Times Roman,serif" font-size="11.00">SimpleModelHelper</text>
</g>
<!-- \\RedBeanPHP\\Observer -->
<g id="node33" class="node"><title>\\RedBeanPHP\\Observer</title>
<polygon fill="none" stroke="black" points="289,-623.343 231,-623.343 231,-587.343 289,-587.343 289,-623.343"/>
<text text-anchor="middle" x="260" y="-602.943" font-family="Times Roman,serif" font-size="11.00">Observer</text>
</g>
<!-- \\RedBeanPHP\\SimpleModelHelper&#45;&gt;\\RedBeanPHP\\Observer -->
<g id="edge46" class="edge"><title>\\RedBeanPHP\\SimpleModelHelper&#45;&gt;\\RedBeanPHP\\Observer</title>
<path fill="none" stroke="black" stroke-dasharray="1,5" d="M427.22,-605.343C387.682,-605.343 334.852,-605.343 299.241,-605.343"/>
<polygon fill="none" stroke="black" points="299.228,-601.843 289.228,-605.343 299.228,-608.843 299.228,-601.843"/>
</g>
<!-- \\RedBeanPHP\\TagManager -->
<g id="node27" class="node"><title>\\RedBeanPHP\\TagManager</title>
<polygon fill="none" stroke="black" points="518,-461.343 444,-461.343 444,-425.343 518,-425.343 518,-461.343"/>
<text text-anchor="middle" x="481" y="-440.943" font-family="Times Roman,serif" font-size="11.00">TagManager</text>
</g>
<!-- \\RedBeanPHP\\LabelMaker -->
<g id="node28" class="node"><title>\\RedBeanPHP\\LabelMaker</title>
<polygon fill="none" stroke="black" points="516,-407.343 446,-407.343 446,-371.343 516,-371.343 516,-407.343"/>
<text text-anchor="middle" x="481" y="-386.943" font-family="Times Roman,serif" font-size="11.00">LabelMaker</text>
</g>
<!-- \\RedBeanPHP\\Facade -->
<g id="node29" class="node"><title>\\RedBeanPHP\\Facade</title>
<polygon fill="none" stroke="black" points="508,-353.343 454,-353.343 454,-317.343 508,-317.343 508,-353.343"/>
<text text-anchor="middle" x="481" y="-332.943" font-family="Times Roman,serif" font-size="11.00">Facade</text>
</g>
<!-- \\RedBeanPHP\\DuplicationManager -->
<g id="node30" class="node"><title>\\RedBeanPHP\\DuplicationManager</title>
<polygon fill="none" stroke="black" points="535,-299.343 427,-299.343 427,-263.343 535,-263.343 535,-299.343"/>
<text text-anchor="middle" x="481" y="-278.943" font-family="Times Roman,serif" font-size="11.00">DuplicationManager</text>
</g>
<!-- \\RedBeanPHP\\Plugin -->
<g id="node37" class="node"><title>\\RedBeanPHP\\Plugin</title>
<polygon fill="none" stroke="black" points="508,-245.343 454,-245.343 454,-209.343 508,-209.343 508,-245.343"/>
<text text-anchor="middle" x="481" y="-224.943" font-family="Times Roman,serif" font-size="11.00">Plugin</text>
</g>
<!-- \\Post -->
<g id="node38" class="node"><title>\\Post</title>
<polygon fill="none" stroke="black" points="708,-1695.34 654,-1695.34 654,-1659.34 708,-1659.34 708,-1695.34"/>
<text text-anchor="middle" x="681" y="-1674.94" font-family="Times Roman,serif" font-size="11.00">Post</text>
</g>
<!-- \\Kernel -->
<g id="node39" class="node"><title>\\Kernel</title>
<polygon fill="none" stroke="black" points="708,-1641.34 654,-1641.34 654,-1605.34 708,-1605.34 708,-1641.34"/>
<text text-anchor="middle" x="681" y="-1620.94" font-family="Times Roman,serif" font-size="11.00">Kernel</text>
</g>
<!-- \\Session -->
<g id="node40" class="node"><title>\\Session</title>
<polygon fill="none" stroke="black" points="708,-1587.34 654,-1587.34 654,-1551.34 708,-1551.34 708,-1587.34"/>
<text text-anchor="middle" x="681" y="-1566.94" font-family="Times Roman,serif" font-size="11.00">Session</text>
</g>
<!-- \\Request -->
<g id="node41" class="node"><title>\\Request</title>
<polygon fill="none" stroke="black" points="708,-1533.34 654,-1533.34 654,-1497.34 708,-1497.34 708,-1533.34"/>
<text text-anchor="middle" x="681" y="-1512.94" font-family="Times Roman,serif" font-size="11.00">Request</text>
</g>
<!-- \\Model -->
<g id="node42" class="node"><title>\\Model</title>
<polygon fill="none" stroke="black" points="708,-1479.34 654,-1479.34 654,-1443.34 708,-1443.34 708,-1479.34"/>
<text text-anchor="middle" x="681" y="-1458.94" font-family="Times Roman,serif" font-size="11.00">Model</text>
</g>
<!-- \\Get -->
<g id="node43" class="node"><title>\\Get</title>
<polygon fill="none" stroke="black" points="708,-1425.34 654,-1425.34 654,-1389.34 708,-1389.34 708,-1425.34"/>
<text text-anchor="middle" x="681" y="-1404.94" font-family="Times Roman,serif" font-size="11.00">Get</text>
</g>
<!-- \\Config -->
<g id="node44" class="node"><title>\\Config</title>
<polygon fill="none" stroke="black" points="708,-1371.34 654,-1371.34 654,-1335.34 708,-1335.34 708,-1371.34"/>
<text text-anchor="middle" x="681" y="-1350.94" font-family="Times Roman,serif" font-size="11.00">Config</text>
</g>
<!-- \\Controller -->
<g id="node45" class="node"><title>\\Controller</title>
<polygon fill="none" stroke="black" points="712,-1317.34 650,-1317.34 650,-1281.34 712,-1281.34 712,-1317.34"/>
<text text-anchor="middle" x="681" y="-1296.94" font-family="Times Roman,serif" font-size="11.00">Controller</text>
</g>
<!-- \\Lang -->
<g id="node46" class="node"><title>\\Lang</title>
<polygon fill="none" stroke="black" points="708,-1263.34 654,-1263.34 654,-1227.34 708,-1227.34 708,-1263.34"/>
<text text-anchor="middle" x="681" y="-1242.94" font-family="Times Roman,serif" font-size="11.00">Lang</text>
</g>
<!-- \\Action -->
<g id="node47" class="node"><title>\\Action</title>
<polygon fill="none" stroke="black" points="708,-1209.34 654,-1209.34 654,-1173.34 708,-1173.34 708,-1209.34"/>
<text text-anchor="middle" x="681" y="-1188.94" font-family="Times Roman,serif" font-size="11.00">Action</text>
</g>
<!-- \\Server -->
<g id="node48" class="node"><title>\\Server</title>
<polygon fill="none" stroke="black" points="708,-1155.34 654,-1155.34 654,-1119.34 708,-1119.34 708,-1155.34"/>
<text text-anchor="middle" x="681" y="-1134.94" font-family="Times Roman,serif" font-size="11.00">Server</text>
</g>
<!-- \\HttpClient -->
<g id="node49" class="node"><title>\\HttpClient</title>
<polygon fill="none" stroke="black" points="712,-1101.34 650,-1101.34 650,-1065.34 712,-1065.34 712,-1101.34"/>
<text text-anchor="middle" x="681" y="-1080.94" font-family="Times Roman,serif" font-size="11.00">HttpClient</text>
</g>
<!-- \\RedBean_SimpleModel -->
<g id="node50" class="node"><title>\\RedBean_SimpleModel</title>
<polygon fill="none" stroke="black" points="742,-1047.34 620,-1047.34 620,-1011.34 742,-1011.34 742,-1047.34"/>
<text text-anchor="middle" x="681" y="-1026.94" font-family="Times Roman,serif" font-size="11.00">RedBean_SimpleModel</text>
</g>
<!-- \\RedBean_SimpleModel&#45;&gt;\\RedBeanPHP\\SimpleModel -->
<g id="edge48" class="edge"><title>\\RedBean_SimpleModel&#45;&gt;\\RedBeanPHP\\SimpleModel</title>
<path fill="none" stroke="black" d="M628.816,-1011.19C625.501,-1008.61 622.499,-1005.68 620,-1002.34 506.073,-850.187 685.55,-724.481 564,-578.343 555.197,-567.759 542.19,-561.287 529.071,-557.341"/>
<polygon fill="none" stroke="black" points="529.64,-553.874 519.085,-554.79 527.908,-560.657 529.64,-553.874"/>
</g>
<!-- \\R -->
<g id="node51" class="node"><title>\\R</title>
<polygon fill="none" stroke="black" points="708,-993.343 654,-993.343 654,-957.343 708,-957.343 708,-993.343"/>
<text text-anchor="middle" x="681" y="-972.943" font-family="Times Roman,serif" font-size="11.00">R</text>
</g>
<!-- \\R&#45;&gt;\\RedBeanPHP\\Facade -->
<g id="edge50" class="edge"><title>\\R&#45;&gt;\\RedBeanPHP\\Facade</title>
<path fill="none" stroke="black" d="M653.901,-969.927C641.577,-966.03 627.992,-959.428 620,-948.343 543.494,-842.232 645.826,-464.407 564,-362.343 552.933,-348.538 534.694,-341.709 518.128,-338.365"/>
<polygon fill="none" stroke="black" points="518.547,-334.886 508.109,-336.701 517.4,-341.792 518.547,-334.886"/>
</g>
<!-- \\PHPMailer -->
<g id="node52" class="node"><title>\\PHPMailer</title>
<polygon fill="none" stroke="black" points="714,-939.343 648,-939.343 648,-903.343 714,-903.343 714,-939.343"/>
<text text-anchor="middle" x="681" y="-918.943" font-family="Times Roman,serif" font-size="11.00">PHPMailer</text>
</g>
<!-- \\phpmailerException -->
<g id="node53" class="node"><title>\\phpmailerException</title>
<polygon fill="none" stroke="black" points="733,-885.343 629,-885.343 629,-849.343 733,-849.343 733,-885.343"/>
<text text-anchor="middle" x="681" y="-864.943" font-family="Times Roman,serif" font-size="11.00">phpmailerException</text>
</g>
<!-- \\phpmailerException&#45;&gt;\\Exception -->
<g id="edge52" class="edge"><title>\\phpmailerException&#45;&gt;\\Exception</title>
<path fill="none" stroke="black" d="M628.65,-849.31C625.373,-846.707 622.424,-843.735 620,-840.343 536.606,-723.649 632.847,-323.169 564,-197.343 504.218,-88.0848 459.897,-66.485 342,-26.3427 273.001,-2.84947 235.614,18.3051 178,-26.3427 104.209,-83.5267 66.2636,-385.995 55.9458,-482.044"/>
<polygon fill="none" stroke="black" points="52.4426,-481.892 54.8755,-492.203 59.4041,-482.625 52.4426,-481.892"/>
</g>
<!-- \\SMTP -->
<g id="node54" class="node"><title>\\SMTP</title>
<polygon fill="none" stroke="black" points="708,-831.343 654,-831.343 654,-795.343 708,-795.343 708,-831.343"/>
<text text-anchor="middle" x="681" y="-810.943" font-family="Times Roman,serif" font-size="11.00">SMTP</text>
</g>
<!-- \\Ftp -->
<g id="node55" class="node"><title>\\Ftp</title>
<polygon fill="none" stroke="black" points="708,-777.343 654,-777.343 654,-741.343 708,-741.343 708,-777.343"/>
<text text-anchor="middle" x="681" y="-756.943" font-family="Times Roman,serif" font-size="11.00">Ftp</text>
</g>
<!-- \\PclZip -->
<g id="node56" class="node"><title>\\PclZip</title>
<polygon fill="none" stroke="black" points="708,-723.343 654,-723.343 654,-687.343 708,-687.343 708,-723.343"/>
<text text-anchor="middle" x="681" y="-702.943" font-family="Times Roman,serif" font-size="11.00">PclZip</text>
</g>
<!-- \\Cache -->
<g id="node57" class="node"><title>\\Cache</title>
<polygon fill="none" stroke="black" points="708,-669.343 654,-669.343 654,-633.343 708,-633.343 708,-669.343"/>
<text text-anchor="middle" x="681" y="-648.943" font-family="Times Roman,serif" font-size="11.00">Cache</text>
</g>
<!-- \\Upload -->
<g id="node58" class="node"><title>\\Upload</title>
<polygon fill="none" stroke="black" points="708,-615.343 654,-615.343 654,-579.343 708,-579.343 708,-615.343"/>
<text text-anchor="middle" x="681" y="-594.943" font-family="Times Roman,serif" font-size="11.00">Upload</text>
</g>
<!-- \\Http -->
<g id="node59" class="node"><title>\\Http</title>
<polygon fill="none" stroke="black" points="708,-561.343 654,-561.343 654,-525.343 708,-525.343 708,-561.343"/>
<text text-anchor="middle" x="681" y="-540.943" font-family="Times Roman,serif" font-size="11.00">Http</text>
</g>
<!-- \\Mysql -->
<g id="node60" class="node"><title>\\Mysql</title>
<polygon fill="none" stroke="black" points="708,-507.343 654,-507.343 654,-471.343 708,-471.343 708,-507.343"/>
<text text-anchor="middle" x="681" y="-486.943" font-family="Times Roman,serif" font-size="11.00">Mysql</text>
</g>
<!-- \\String -->
<g id="node61" class="node"><title>\\String</title>
<polygon fill="none" stroke="black" points="708,-453.343 654,-453.343 654,-417.343 708,-417.343 708,-453.343"/>
<text text-anchor="middle" x="681" y="-432.943" font-family="Times Roman,serif" font-size="11.00">String</text>
</g>
<!-- \\Apache -->
<g id="node62" class="node"><title>\\Apache</title>
<polygon fill="none" stroke="black" points="708,-399.343 654,-399.343 654,-363.343 708,-363.343 708,-399.343"/>
<text text-anchor="middle" x="681" y="-378.943" font-family="Times Roman,serif" font-size="11.00">Apache</text>
</g>
<!-- \\Demo -->
<g id="node63" class="node"><title>\\Demo</title>
<polygon fill="none" stroke="black" points="708,-345.343 654,-345.343 654,-309.343 708,-309.343 708,-345.343"/>
<text text-anchor="middle" x="681" y="-324.943" font-family="Times Roman,serif" font-size="11.00">Demo</text>
</g>
<!-- \\Image -->
<g id="node64" class="node"><title>\\Image</title>
<polygon fill="none" stroke="black" points="708,-291.343 654,-291.343 654,-255.343 708,-255.343 708,-291.343"/>
<text text-anchor="middle" x="681" y="-270.943" font-family="Times Roman,serif" font-size="11.00">Image</text>
</g>
<!-- \\Page -->
<g id="node65" class="node"><title>\\Page</title>
<polygon fill="none" stroke="black" points="708,-237.343 654,-237.343 654,-201.343 708,-201.343 708,-237.343"/>
<text text-anchor="middle" x="681" y="-216.943" font-family="Times Roman,serif" font-size="11.00">Page</text>
</g>
</g>
</svg>
